<svg id="visual" viewBox="0 0 1000 200" width="1000" height="200" xmlns="http://www.w3.org/2000/svg" xmlns:xlink="http://www.w3.org/1999/xlink" version="1.1"><path d="M0 67L15.2 67C30.3 67 60.7 67 91 68.7C121.3 70.3 151.7 73.7 182 76.7C212.3 79.7 242.7 82.3 273 76.3C303.3 70.3 333.7 55.7 364 48.7C394.3 41.7 424.7 42.3 454.8 44.7C485 47 515 51 545.2 48.7C575.3 46.3 605.7 37.7 636 40.7C666.3 43.7 696.7 58.3 727 58.3C757.3 58.3 787.7 43.7 818 39.3C848.3 35 878.7 41 909 44.3C939.3 47.7 969.7 48.3 984.8 48.7L1000 49L1000 0L984.8 0C969.7 0 939.3 0 909 0C878.7 0 848.3 0 818 0C787.7 0 757.3 0 727 0C696.7 0 666.3 0 636 0C605.7 0 575.3 0 545.2 0C515 0 485 0 454.8 0C424.7 0 394.3 0 364 0C333.7 0 303.3 0 273 0C242.7 0 212.3 0 182 0C151.7 0 121.3 0 91 0C60.7 0 30.3 0 15.2 0L0 0Z" fill="#070511"></path><path d="M0 131L15.2 132.7C30.3 134.3 60.7 137.7 91 135.7C121.3 133.7 151.7 126.3 182 122.7C212.3 119 242.7 119 273 119C303.3 119 333.7 119 364 115C394.3 111 424.7 103 454.8 104.7C485 106.3 515 117.7 545.2 120C575.3 122.3 605.7 115.7 636 114C666.3 112.3 696.7 115.7 727 117.3C757.3 119 787.7 119 818 115.7C848.3 112.3 878.7 105.7 909 104C939.3 102.3 969.7 105.7 984.8 107.3L1000 109L1000 47L984.8 46.7C969.7 46.3 939.3 45.7 909 42.3C878.7 39 848.3 33 818 37.3C787.7 41.7 757.3 56.3 727 56.3C696.7 56.3 666.3 41.7 636 38.7C605.7 35.7 575.3 44.3 545.2 46.7C515 49 485 45 454.8 42.7C424.7 40.3 394.3 39.7 364 46.7C333.7 53.7 303.3 68.3 273 74.3C242.7 80.3 212.3 77.7 182 74.7C151.7 71.7 121.3 68.3 91 66.7C60.7 65 30.3 65 15.2 65L0 65Z" fill="#1a1b45"></path><path d="M0 153L15.2 156C30.3 159 60.7 165 91 165C121.3 165 151.7 159 182 154.3C212.3 149.7 242.7 146.3 273 143.3C303.3 140.3 333.7 137.7 364 135.3C394.3 133 424.7 131 454.8 136.7C485 142.3 515 155.7 545.2 157.3C575.3 159 605.7 149 636 145.7C666.3 142.3 696.7 145.7 727 144.7C757.3 143.7 787.7 138.3 818 136C848.3 133.7 878.7 134.3 909 136C939.3 137.7 969.7 140.3 984.8 141.7L1000 143L1000 107L984.8 105.3C969.7 103.7 939.3 100.3 909 102C878.7 103.7 848.3 110.3 818 113.7C787.7 117 757.3 117 727 115.3C696.7 113.7 666.3 110.3 636 112C605.7 113.7 575.3 120.3 545.2 118C515 115.7 485 104.3 454.8 102.7C424.7 101 394.3 109 364 113C333.7 117 303.3 117 273 117C242.7 117 212.3 117 182 120.7C151.7 124.3 121.3 131.7 91 133.7C60.7 135.7 30.3 132.3 15.2 130.7L0 129Z" fill="#242c7f"></path><path d="M0 173L15.2 175.7C30.3 178.3 60.7 183.7 91 184.3C121.3 185 151.7 181 182 180.7C212.3 180.3 242.7 183.7 273 184C303.3 184.3 333.7 181.7 364 180.3C394.3 179 424.7 179 454.8 180.7C485 182.3 515 185.7 545.2 186.7C575.3 187.7 605.7 186.3 636 182.7C666.3 179 696.7 173 727 173.7C757.3 174.3 787.7 181.7 818 185C848.3 188.3 878.7 187.7 909 184C939.3 180.3 969.7 173.7 984.8 170.3L1000 167L1000 141L984.8 139.7C969.7 138.3 939.3 135.7 909 134C878.7 132.3 848.3 131.7 818 134C787.7 136.3 757.3 141.7 727 142.7C696.7 143.7 666.3 140.3 636 143.7C605.7 147 575.3 157 545.2 155.3C515 153.7 485 140.3 454.8 134.7C424.7 129 394.3 131 364 133.3C333.7 135.7 303.3 138.3 273 141.3C242.7 144.3 212.3 147.7 182 152.3C151.7 157 121.3 163 91 163C60.7 163 30.3 157 15.2 154L0 151Z" fill="#2f3dbd"></path><path d="M0 201L15.2 201C30.3 201 60.7 201 91 201C121.3 201 151.7 201 182 201C212.3 201 242.7 201 273 201C303.3 201 333.7 201 364 201C394.3 201 424.7 201 454.8 201C485 201 515 201 545.2 201C575.3 201 605.7 201 636 201C666.3 201 696.7 201 727 201C757.3 201 787.7 201 818 201C848.3 201 878.7 201 909 201C939.3 201 969.7 201 984.8 201L1000 201L1000 165L984.8 168.3C969.7 171.7 939.3 178.3 909 182C878.7 185.7 848.3 186.3 818 183C787.7 179.7 757.3 172.3 727 171.7C696.7 171 666.3 177 636 180.7C605.7 184.3 575.3 185.7 545.2 184.7C515 183.7 485 180.3 454.8 178.7C424.7 177 394.3 177 364 178.3C333.7 179.7 303.3 182.3 273 182C242.7 181.7 212.3 178.3 182 178.7C151.7 179 121.3 183 91 182.3C60.7 181.7 30.3 176.3 15.2 173.7L0 171Z" fill="#404dff"></path></svg>