<svg id="visual" viewBox="0 0 1000 200" width="1000" height="200" xmlns="http://www.w3.org/2000/svg" xmlns:xlink="http://www.w3.org/1999/xlink" version="1.1"><path d="M0 27L23.8 27C47.7 27 95.3 27 143 27.7C190.7 28.3 238.3 29.7 286 30.7C333.7 31.7 381.3 32.3 428.8 30C476.3 27.7 523.7 22.3 571.2 20C618.7 17.7 666.3 18.3 714 21.3C761.7 24.3 809.3 29.7 857 30.7C904.7 31.7 952.3 28.3 976.2 26.7L1000 25L1000 0L976.2 0C952.3 0 904.7 0 857 0C809.3 0 761.7 0 714 0C666.3 0 618.7 0 571.2 0C523.7 0 476.3 0 428.8 0C381.3 0 333.7 0 286 0C238.3 0 190.7 0 143 0C95.3 0 47.7 0 23.8 0L0 0Z" fill="#404dff"></path><path d="M0 49L23.8 49C47.7 49 95.3 49 143 49.7C190.7 50.3 238.3 51.7 286 53C333.7 54.3 381.3 55.7 428.8 52.7C476.3 49.7 523.7 42.3 571.2 39.3C618.7 36.3 666.3 37.7 714 40.3C761.7 43 809.3 47 857 47C904.7 47 952.3 43 976.2 41L1000 39L1000 23L976.2 24.7C952.3 26.3 904.7 29.7 857 28.7C809.3 27.7 761.7 22.3 714 19.3C666.3 16.3 618.7 15.7 571.2 18C523.7 20.3 476.3 25.7 428.8 28C381.3 30.3 333.7 29.7 286 28.7C238.3 27.7 190.7 26.3 143 25.7C95.3 25 47.7 25 23.8 25L0 25Z" fill="#3240ca"></path><path d="M0 79L23.8 77.7C47.7 76.3 95.3 73.7 143 73.7C190.7 73.7 238.3 76.3 286 78C333.7 79.7 381.3 80.3 428.8 78C476.3 75.7 523.7 70.3 571.2 70C618.7 69.7 666.3 74.3 714 75C761.7 75.7 809.3 72.3 857 72.7C904.7 73 952.3 77 976.2 79L1000 81L1000 37L976.2 39C952.3 41 904.7 45 857 45C809.3 45 761.7 41 714 38.3C666.3 35.7 618.7 34.3 571.2 37.3C523.7 40.3 476.3 47.7 428.8 50.7C381.3 53.7 333.7 52.3 286 51C238.3 49.7 190.7 48.3 143 47.7C95.3 47 47.7 47 23.8 47L0 47Z" fill="#283398"></path><path d="M0 137L23.8 137.7C47.7 138.3 95.3 139.7 143 136C190.7 132.3 238.3 123.7 286 124.7C333.7 125.7 381.3 136.3 428.8 141.3C476.3 146.3 523.7 145.7 571.2 142.7C618.7 139.7 666.3 134.3 714 133.3C761.7 132.3 809.3 135.7 857 137.7C904.7 139.7 952.3 140.3 976.2 140.7L1000 141L1000 79L976.2 77C952.3 75 904.7 71 857 70.7C809.3 70.3 761.7 73.7 714 73C666.3 72.3 618.7 67.7 571.2 68C523.7 68.3 476.3 73.7 428.8 76C381.3 78.3 333.7 77.7 286 76C238.3 74.3 190.7 71.7 143 71.7C95.3 71.7 47.7 74.3 23.8 75.7L0 77Z" fill="#202567"></path><path d="M0 155L23.8 157.3C47.7 159.7 95.3 164.3 143 161.7C190.7 159 238.3 149 286 147.7C333.7 146.3 381.3 153.7 428.8 158.7C476.3 163.7 523.7 166.3 571.2 165.3C618.7 164.3 666.3 159.7 714 158.7C761.7 157.7 809.3 160.3 857 162.7C904.7 165 952.3 167 976.2 168L1000 169L1000 139L976.2 138.7C952.3 138.3 904.7 137.7 857 135.7C809.3 133.7 761.7 130.3 714 131.3C666.3 132.3 618.7 137.7 571.2 140.7C523.7 143.7 476.3 144.3 428.8 139.3C381.3 134.3 333.7 123.7 286 122.7C238.3 121.7 190.7 130.3 143 134C95.3 137.7 47.7 136.3 23.8 135.7L0 135Z" fill="#17183a"></path><path d="M0 201L23.8 201C47.7 201 95.3 201 143 201C190.7 201 238.3 201 286 201C333.7 201 381.3 201 428.8 201C476.3 201 523.7 201 571.2 201C618.7 201 666.3 201 714 201C761.7 201 809.3 201 857 201C904.7 201 952.3 201 976.2 201L1000 201L1000 167L976.2 166C952.3 165 904.7 163 857 160.7C809.3 158.3 761.7 155.7 714 156.7C666.3 157.7 618.7 162.3 571.2 163.3C523.7 164.3 476.3 161.7 428.8 156.7C381.3 151.7 333.7 144.3 286 145.7C238.3 147 190.7 157 143 159.7C95.3 162.3 47.7 157.7 23.8 155.3L0 153Z" fill="#070511"></path></svg>