<svg id="visual" viewBox="0 0 1000 200" width="1000" height="200" xmlns="http://www.w3.org/2000/svg" xmlns:xlink="http://www.w3.org/1999/xlink" version="1.1"><path d="M0 68L12.8 65.7C25.7 63.3 51.3 58.7 77 53.5C102.7 48.3 128.3 42.7 154 44.7C179.7 46.7 205.3 56.3 231 57.2C256.7 58 282.3 50 308 44.5C333.7 39 359.3 36 385 36.7C410.7 37.3 436.3 41.7 461.8 47.8C487.3 54 512.7 62 538.2 62C563.7 62 589.3 54 615 51.7C640.7 49.3 666.3 52.7 692 51.5C717.7 50.3 743.3 44.7 769 44.5C794.7 44.3 820.3 49.7 846 51.8C871.7 54 897.3 53 923 47.8C948.7 42.7 974.3 33.3 987.2 28.7L1000 24L1000 201L987.2 201C974.3 201 948.7 201 923 201C897.3 201 871.7 201 846 201C820.3 201 794.7 201 769 201C743.3 201 717.7 201 692 201C666.3 201 640.7 201 615 201C589.3 201 563.7 201 538.2 201C512.7 201 487.3 201 461.8 201C436.3 201 410.7 201 385 201C359.3 201 333.7 201 308 201C282.3 201 256.7 201 231 201C205.3 201 179.7 201 154 201C128.3 201 102.7 201 77 201C51.3 201 25.7 201 12.8 201L0 201Z" fill="#404dff"></path><path d="M0 94L12.8 90.8C25.7 87.7 51.3 81.3 77 79.5C102.7 77.7 128.3 80.3 154 79.2C179.7 78 205.3 73 231 69.5C256.7 66 282.3 64 308 61.8C333.7 59.7 359.3 57.3 385 58.3C410.7 59.3 436.3 63.7 461.8 65C487.3 66.3 512.7 64.7 538.2 63.3C563.7 62 589.3 61 615 59.7C640.7 58.3 666.3 56.7 692 58.7C717.7 60.7 743.3 66.3 769 71.2C794.7 76 820.3 80 846 79.5C871.7 79 897.3 74 923 70C948.7 66 974.3 63 987.2 61.5L1000 60L1000 201L987.2 201C974.3 201 948.7 201 923 201C897.3 201 871.7 201 846 201C820.3 201 794.7 201 769 201C743.3 201 717.7 201 692 201C666.3 201 640.7 201 615 201C589.3 201 563.7 201 538.2 201C512.7 201 487.3 201 461.8 201C436.3 201 410.7 201 385 201C359.3 201 333.7 201 308 201C282.3 201 256.7 201 231 201C205.3 201 179.7 201 154 201C128.3 201 102.7 201 77 201C51.3 201 25.7 201 12.8 201L0 201Z" fill="#3240ca"></path><path d="M0 104L12.8 104.5C25.7 105 51.3 106 77 107.8C102.7 109.7 128.3 112.3 154 109.7C179.7 107 205.3 99 231 93.8C256.7 88.7 282.3 86.3 308 84.7C333.7 83 359.3 82 385 83.7C410.7 85.3 436.3 89.7 461.8 92.7C487.3 95.7 512.7 97.3 538.2 96.7C563.7 96 589.3 93 615 93.3C640.7 93.7 666.3 97.3 692 95.2C717.7 93 743.3 85 769 87.2C794.7 89.3 820.3 101.7 846 104.8C871.7 108 897.3 102 923 100.8C948.7 99.7 974.3 103.3 987.2 105.2L1000 107L1000 201L987.2 201C974.3 201 948.7 201 923 201C897.3 201 871.7 201 846 201C820.3 201 794.7 201 769 201C743.3 201 717.7 201 692 201C666.3 201 640.7 201 615 201C589.3 201 563.7 201 538.2 201C512.7 201 487.3 201 461.8 201C436.3 201 410.7 201 385 201C359.3 201 333.7 201 308 201C282.3 201 256.7 201 231 201C205.3 201 179.7 201 154 201C128.3 201 102.7 201 77 201C51.3 201 25.7 201 12.8 201L0 201Z" fill="#283398"></path><path d="M0 120L12.8 122.5C25.7 125 51.3 130 77 131.5C102.7 133 128.3 131 154 130C179.7 129 205.3 129 231 126.8C256.7 124.7 282.3 120.3 308 120.2C333.7 120 359.3 124 385 125.8C410.7 127.7 436.3 127.3 461.8 127.5C487.3 127.7 512.7 128.3 538.2 126.7C563.7 125 589.3 121 615 122C640.7 123 666.3 129 692 129C717.7 129 743.3 123 769 122.3C794.7 121.7 820.3 126.3 846 129.8C871.7 133.3 897.3 135.7 923 132C948.7 128.3 974.3 118.7 987.2 113.8L1000 109L1000 201L987.2 201C974.3 201 948.7 201 923 201C897.3 201 871.7 201 846 201C820.3 201 794.7 201 769 201C743.3 201 717.7 201 692 201C666.3 201 640.7 201 615 201C589.3 201 563.7 201 538.2 201C512.7 201 487.3 201 461.8 201C436.3 201 410.7 201 385 201C359.3 201 333.7 201 308 201C282.3 201 256.7 201 231 201C205.3 201 179.7 201 154 201C128.3 201 102.7 201 77 201C51.3 201 25.7 201 12.8 201L0 201Z" fill="#202567"></path><path d="M0 161L12.8 158.2C25.7 155.3 51.3 149.7 77 146.8C102.7 144 128.3 144 154 144.5C179.7 145 205.3 146 231 144.2C256.7 142.3 282.3 137.7 308 135.3C333.7 133 359.3 133 385 137.7C410.7 142.3 436.3 151.7 461.8 152.3C487.3 153 512.7 145 538.2 144.3C563.7 143.7 589.3 150.3 615 150.2C640.7 150 666.3 143 692 139.8C717.7 136.7 743.3 137.3 769 138.7C794.7 140 820.3 142 846 145C871.7 148 897.3 152 923 150.5C948.7 149 974.3 142 987.2 138.5L1000 135L1000 201L987.2 201C974.3 201 948.7 201 923 201C897.3 201 871.7 201 846 201C820.3 201 794.7 201 769 201C743.3 201 717.7 201 692 201C666.3 201 640.7 201 615 201C589.3 201 563.7 201 538.2 201C512.7 201 487.3 201 461.8 201C436.3 201 410.7 201 385 201C359.3 201 333.7 201 308 201C282.3 201 256.7 201 231 201C205.3 201 179.7 201 154 201C128.3 201 102.7 201 77 201C51.3 201 25.7 201 12.8 201L0 201Z" fill="#17183a"></path><path d="M0 174L12.8 172.8C25.7 171.7 51.3 169.3 77 166.7C102.7 164 128.3 161 154 159.3C179.7 157.7 205.3 157.3 231 160.8C256.7 164.3 282.3 171.7 308 173.5C333.7 175.3 359.3 171.7 385 172.3C410.7 173 436.3 178 461.8 177C487.3 176 512.7 169 538.2 167C563.7 165 589.3 168 615 169.8C640.7 171.7 666.3 172.3 692 174C717.7 175.7 743.3 178.3 769 177.5C794.7 176.7 820.3 172.3 846 170.2C871.7 168 897.3 168 923 167.2C948.7 166.3 974.3 164.7 987.2 163.8L1000 163L1000 201L987.2 201C974.3 201 948.7 201 923 201C897.3 201 871.7 201 846 201C820.3 201 794.7 201 769 201C743.3 201 717.7 201 692 201C666.3 201 640.7 201 615 201C589.3 201 563.7 201 538.2 201C512.7 201 487.3 201 461.8 201C436.3 201 410.7 201 385 201C359.3 201 333.7 201 308 201C282.3 201 256.7 201 231 201C205.3 201 179.7 201 154 201C128.3 201 102.7 201 77 201C51.3 201 25.7 201 12.8 201L0 201Z" fill="#070511"></path></svg>