<svg id="visual" viewBox="0 0 1000 200" width="1000" height="200" xmlns="http://www.w3.org/2000/svg" xmlns:xlink="http://www.w3.org/1999/xlink" version="1.1"><path d="M0 43L15.2 43C30.3 43 60.7 43 91 48.3C121.3 53.7 151.7 64.3 182 63.7C212.3 63 242.7 51 273 51.3C303.3 51.7 333.7 64.3 364 63C394.3 61.7 424.7 46.3 454.8 44.7C485 43 515 55 545.2 62.3C575.3 69.7 605.7 72.3 636 73.3C666.3 74.3 696.7 73.7 727 68.7C757.3 63.7 787.7 54.3 818 52.7C848.3 51 878.7 57 909 59C939.3 61 969.7 59 984.8 58L1000 57L1000 0L984.8 0C969.7 0 939.3 0 909 0C878.7 0 848.3 0 818 0C787.7 0 757.3 0 727 0C696.7 0 666.3 0 636 0C605.7 0 575.3 0 545.2 0C515 0 485 0 454.8 0C424.7 0 394.3 0 364 0C333.7 0 303.3 0 273 0C242.7 0 212.3 0 182 0C151.7 0 121.3 0 91 0C60.7 0 30.3 0 15.2 0L0 0Z" fill="#070511"></path><path d="M0 113L15.2 116.3C30.3 119.7 60.7 126.3 91 128C121.3 129.7 151.7 126.3 182 121.7C212.3 117 242.7 111 273 111.3C303.3 111.7 333.7 118.3 364 117.7C394.3 117 424.7 109 454.8 106.7C485 104.3 515 107.7 545.2 112.3C575.3 117 605.7 123 636 122C666.3 121 696.7 113 727 109C757.3 105 787.7 105 818 104.7C848.3 104.3 878.7 103.7 909 104.3C939.3 105 969.7 107 984.8 108L1000 109L1000 55L984.8 56C969.7 57 939.3 59 909 57C878.7 55 848.3 49 818 50.7C787.7 52.3 757.3 61.7 727 66.7C696.7 71.7 666.3 72.3 636 71.3C605.7 70.3 575.3 67.7 545.2 60.3C515 53 485 41 454.8 42.7C424.7 44.3 394.3 59.7 364 61C333.7 62.3 303.3 49.7 273 49.3C242.7 49 212.3 61 182 61.7C151.7 62.3 121.3 51.7 91 46.3C60.7 41 30.3 41 15.2 41L0 41Z" fill="#1a1b45"></path><path d="M0 153L15.2 153.3C30.3 153.7 60.7 154.3 91 156.7C121.3 159 151.7 163 182 161.7C212.3 160.3 242.7 153.7 273 152.7C303.3 151.7 333.7 156.3 364 158C394.3 159.7 424.7 158.3 454.8 159C485 159.7 515 162.3 545.2 161C575.3 159.7 605.7 154.3 636 151C666.3 147.7 696.7 146.3 727 144.3C757.3 142.3 787.7 139.7 818 137.3C848.3 135 878.7 133 909 136C939.3 139 969.7 147 984.8 151L1000 155L1000 107L984.8 106C969.7 105 939.3 103 909 102.3C878.7 101.7 848.3 102.3 818 102.7C787.7 103 757.3 103 727 107C696.7 111 666.3 119 636 120C605.7 121 575.3 115 545.2 110.3C515 105.7 485 102.3 454.8 104.7C424.7 107 394.3 115 364 115.7C333.7 116.3 303.3 109.7 273 109.3C242.7 109 212.3 115 182 119.7C151.7 124.3 121.3 127.7 91 126C60.7 124.3 30.3 117.7 15.2 114.3L0 111Z" fill="#242c7f"></path><path d="M0 177L15.2 176.7C30.3 176.3 60.7 175.7 91 176.7C121.3 177.7 151.7 180.3 182 177.7C212.3 175 242.7 167 273 167C303.3 167 333.7 175 364 179.7C394.3 184.3 424.7 185.7 454.8 185.7C485 185.7 515 184.3 545.2 181.7C575.3 179 605.7 175 636 173.7C666.3 172.3 696.7 173.7 727 172.3C757.3 171 787.7 167 818 164.7C848.3 162.3 878.7 161.7 909 163.3C939.3 165 969.7 169 984.8 171L1000 173L1000 153L984.8 149C969.7 145 939.3 137 909 134C878.7 131 848.3 133 818 135.3C787.7 137.7 757.3 140.3 727 142.3C696.7 144.3 666.3 145.7 636 149C605.7 152.3 575.3 157.7 545.2 159C515 160.3 485 157.7 454.8 157C424.7 156.3 394.3 157.7 364 156C333.7 154.3 303.3 149.7 273 150.7C242.7 151.7 212.3 158.3 182 159.7C151.7 161 121.3 157 91 154.7C60.7 152.3 30.3 151.7 15.2 151.3L0 151Z" fill="#2f3dbd"></path><path d="M0 201L15.2 201C30.3 201 60.7 201 91 201C121.3 201 151.7 201 182 201C212.3 201 242.7 201 273 201C303.3 201 333.7 201 364 201C394.3 201 424.7 201 454.8 201C485 201 515 201 545.2 201C575.3 201 605.7 201 636 201C666.3 201 696.7 201 727 201C757.3 201 787.7 201 818 201C848.3 201 878.7 201 909 201C939.3 201 969.7 201 984.8 201L1000 201L1000 171L984.8 169C969.7 167 939.3 163 909 161.3C878.7 159.7 848.3 160.3 818 162.7C787.7 165 757.3 169 727 170.3C696.7 171.7 666.3 170.3 636 171.7C605.7 173 575.3 177 545.2 179.7C515 182.3 485 183.7 454.8 183.7C424.7 183.7 394.3 182.3 364 177.7C333.7 173 303.3 165 273 165C242.7 165 212.3 173 182 175.7C151.7 178.3 121.3 175.7 91 174.7C60.7 173.7 30.3 174.3 15.2 174.7L0 175Z" fill="#404dff"></path></svg>